# xmcd CD database file
#
# Track frame offsets:
#	150
#	31800
#	60975
#	77035
#	108034
#	145247
#	165801
#	186351
#	213450
#
# Disc length: 3348 seconds
#
# Revision: 0
# Processed by: cddbd v1.5.2PL0 Copyright (c) Steve Scherf et al.
# Submitted via: CDex 1.70beta2
#
DISCID=690d1209
DTITLE=Peter Lehel - Song of Praise
DYEAR=2012
DGENRE=Jazz
TTITLE0=Moves
TTITLE1=Taste of Fruit
TTITLE2=Wandering Dreams
TTITLE3=Losing my Mind
TTITLE4=Midnight Desire
TTITLE5=The Garden
TTITLE6=Shulamite's Dance
TTITLE7=Set me as a Seal upon Thine Heart
TTITLE8=Anima
EXTD=YEAR: 2012
EXTT0=
EXTT1=
EXTT2=
EXTT3=
EXTT4=
EXTT5=
EXTT6=
EXTT7=
EXTT8=
PLAYORDER=
